<svg width="167" height="141" viewBox="0 0 167 141" fill="none" xmlns="http://www.w3.org/2000/svg">
<path d="M161 39.6522L84.3884 6.17388C84.1346 6.06296 83.8461 6.0623 83.5918 6.17204L6.60382 39.3916C6.23734 39.5498 6 39.9107 6 40.3098V58.75C6 59.3023 6.44772 59.75 7 59.75H160C160.552 59.75 161 60.1977 161 60.75V83.9891C161 84.5414 160.552 84.9891 160 84.9891H7C6.44771 84.9891 6 85.4368 6 85.9891V108.761C6 109.313 6.44772 109.761 7 109.761H160C160.552 109.761 161 110.209 161 110.761V134C161 134.552 160.552 135 160 135H6" stroke="#4B7BEC" stroke-width="12"/>
</svg>
